<?xml version="1.0" standalone="no"?>
<!DOCTYPE svg PUBLIC "-//W3C//DTD SVG 20010904//EN"
 "http://www.w3.org/TR/2001/REC-SVG-20010904/DTD/svg10.dtd">
<svg version="1.0" xmlns="http://www.w3.org/2000/svg"
 width="280.000000pt" height="280.000000pt" viewBox="0 0 280.000000 280.000000"
 preserveAspectRatio="xMidYMid meet">
<metadata>
Created by potrace 1.11, written by Peter Selinger 2001-2013
</metadata>
<g transform="translate(0.000000,280.000000) scale(0.100000,-0.100000)"
fill="#000000" stroke="none">
<path d="M1381 2436 c-6 -7 -12 -80 -13 -172 l-3 -159 -57 -3 c-69 -4 -65 -9
-103 148 -38 155 -44 170 -66 170 -18 0 -24 -12 -19 -35 1 -5 18 -70 37 -144
19 -73 32 -139 30 -146 -3 -6 -33 -18 -67 -24 -77 -15 -71 -20 -154 125 -46
81 -67 109 -81 109 -31 0 -22 -30 44 -145 34 -58 61 -110 61 -115 0 -6 -26
-22 -57 -36 -32 -13 -61 -26 -65 -27 -5 -2 -46 33 -91 77 -79 77 -108 94 -122
71 -3 -6 30 -48 75 -95 l82 -85 -60 -45 c-33 -25 -65 -45 -71 -45 -5 0 -45 21
-86 46 -52 32 -80 43 -87 36 -19 -19 2 -47 58 -77 83 -45 83 -46 24 -117 -61
-74 -80 -83 -138 -68 -24 6 -47 8 -53 5 -19 -12 -8 -35 25 -49 18 -8 36 -18
39 -23 3 -5 -30 -51 -74 -102 -43 -51 -79 -101 -79 -112 0 -10 36 -58 80 -106
44 -49 80 -91 80 -95 0 -4 -18 -15 -40 -24 -26 -12 -40 -24 -38 -34 3 -12 16
-14 69 -12 l65 3 57 -64 c31 -36 57 -69 57 -74 0 -4 -30 -26 -67 -49 -46 -27
-69 -47 -71 -62 -5 -33 18 -28 103 24 45 27 80 42 87 38 7 -4 37 -26 66 -47
l53 -40 -81 -82 c-44 -46 -80 -88 -80 -94 0 -6 7 -14 16 -18 11 -4 41 19 98
76 45 44 89 81 97 81 24 0 129 -48 129 -59 0 -5 -27 -56 -60 -113 -59 -103
-75 -147 -55 -154 18 -6 30 9 98 128 37 64 73 118 80 121 19 7 137 -24 137
-37 -1 -14 -65 -266 -74 -287 -4 -9 0 -21 10 -30 25 -20 37 4 73 144 42 163
47 172 97 171 76 -1 74 4 74 -166 0 -157 6 -186 34 -175 14 6 16 29 16 166 0
88 3 162 8 164 17 11 98 17 111 9 7 -5 31 -76 52 -157 21 -82 43 -153 48 -158
16 -16 44 13 36 37 -30 97 -72 283 -66 289 15 15 118 34 135 25 8 -5 41 -54
72 -109 68 -119 87 -145 102 -135 21 13 13 35 -53 150 -36 62 -65 116 -65 119
0 8 110 57 128 57 9 0 53 -36 98 -80 45 -44 87 -80 93 -80 6 0 14 7 18 16 4
11 -18 40 -71 93 -42 42 -76 81 -76 87 0 5 27 29 60 53 l61 42 78 -45 c87 -51
101 -55 101 -26 0 14 -19 33 -62 60 -35 22 -67 41 -73 43 -9 4 70 106 104 135
12 10 33 12 79 8 56 -6 62 -5 62 12 0 11 -14 25 -35 35 -19 9 -35 21 -35 26 0
5 36 51 80 104 44 52 80 97 80 101 0 4 -36 49 -80 100 -44 52 -80 98 -80 103
0 5 16 17 36 26 24 12 34 23 32 35 -4 18 -20 20 -81 7 -37 -7 -40 -6 -93 51
-85 91 -85 87 -5 133 72 42 89 62 67 80 -9 8 -33 -2 -89 -34 -42 -25 -81 -45
-86 -45 -11 0 -121 80 -121 88 0 3 34 40 75 83 41 42 75 84 75 93 0 33 -37 14
-100 -50 -95 -96 -104 -99 -179 -64 -33 16 -61 31 -61 33 0 3 29 56 65 118 68
120 77 149 46 149 -14 0 -37 -33 -87 -120 -37 -65 -74 -122 -82 -125 -21 -8
-131 17 -136 31 -3 7 13 79 35 160 34 128 38 149 25 162 -12 12 -16 11 -29 -9
-8 -13 -30 -82 -48 -154 -18 -71 -37 -136 -42 -142 -12 -16 -99 -17 -115 -1
-8 8 -12 60 -12 169 0 127 -3 158 -14 162 -8 3 -19 0 -25 -7z m226 -401 c203
-39 371 -124 495 -252 89 -92 318 -365 318 -380 0 -26 -329 -402 -398 -454
-294 -223 -759 -260 -1107 -89 -116 58 -207 136 -347 300 -160 188 -198 235
-198 244 0 14 317 382 366 425 106 93 286 177 443 205 105 19 330 20 428 1z"/>
<path d="M1233 1992 c-264 -79 -443 -314 -443 -584 0 -100 14 -166 56 -257 78
-169 227 -293 406 -336 53 -13 95 -16 176 -12 131 6 205 30 309 99 168 113
264 293 266 498 0 107 -15 174 -63 275 -67 139 -186 246 -338 303 -91 34 -276
41 -369 14z m312 -49 c193 -47 358 -225 401 -433 58 -280 -125 -570 -406 -645
-74 -20 -222 -19 -291 1 -192 57 -345 213 -394 400 -19 75 -19 203 0 278 58
221 256 392 480 416 73 7 131 3 210 -17z"/>
<path d="M1145 1730 c-4 -6 -1 -17 5 -25 10 -12 48 -15 196 -15 l184 0 0 -55
0 -55 -234 0 c-226 0 -234 -1 -267 -23 -62 -41 -75 -100 -36 -158 28 -42 60
-59 113 -59 l42 0 4 -62 c5 -68 0 -78 -42 -78 -41 0 -74 23 -86 60 -8 23 -18
35 -30 35 -27 0 -29 -43 -4 -83 25 -40 73 -62 137 -62 43 0 51 -4 76 -35 39
-49 95 -75 162 -75 70 0 110 17 160 69 38 40 41 41 102 41 105 0 160 35 170
108 6 45 -15 95 -50 114 -12 7 -53 15 -92 18 l-70 5 0 65 0 65 56 3 c65 3 96
-15 113 -69 16 -51 41 -45 40 9 -1 35 -7 50 -32 75 -29 29 -39 32 -107 35
l-75 4 0 54 0 54 63 0 c67 0 95 14 76 37 -15 17 -564 19 -574 3z m383 -267
l-3 -68 -157 -3 -157 -3 -7 25 c-3 14 -3 29 0 35 9 14 -4 41 -20 41 -16 0 -34
-39 -34 -76 0 -21 -4 -24 -40 -24 -46 0 -90 34 -90 70 0 12 11 32 25 45 l24
25 231 0 231 0 -3 -67z m2 -181 c0 -32 -5 -63 -12 -70 -8 -8 -57 -12 -155 -12
l-143 0 -10 26 c-11 29 -13 97 -3 107 3 4 78 7 165 7 l158 0 0 -58z m200 38
c27 -27 25 -66 -5 -95 -20 -21 -34 -25 -85 -25 l-60 0 0 63 c0 35 3 67 7 70 3
4 33 7 65 7 45 0 63 -5 78 -20z m-251 -186 c-50 -60 -178 -60 -228 0 -12 14
-1 16 114 16 115 0 126 -2 114 -16z"/>
</g>
</svg>
